# xmcd CD database file
#
# Track frame offsets:
#	150
#	20512
#	41042
#	58742
#	81087
#	107722
#	124582
#	144480
#	163320
#	182155
#	203465
#	222007
#	241675
#	262732
#	284787
#	306747
#	323032
#
# Disc length: 4501 seconds
#
# Revision: 2
# Processed by: cddbd v1.4PL0 Copyright (c) Steve Scherf et al.
# Submitted via: CDex 1.50beta10
#
DISCID=f7119311
DTITLE=Various Artist - D.J Line - Vol. 27
DYEAR=1997
DGENRE=Dance
TTITLE0=Alexia - Uh La La La
TTITLE1=Angelina - Tide Is High
TTITLE2=D.J. BoBo - It's My Life
TTITLE3=Koolmatch - I Like It, I Luv It
TTITLE4=Spice Girls - Spice Girls Megamix
TTITLE5=Jaade - Believe In Love
TTITLE6=Q-Club - I'll Be There
TTITLE7=Strobe - Say Yeah!
TTITLE8=Disciples of Sound - Emergency
TTITLE9=House Lizards - Check Out Da Bassline
TTITLE10=Sex Kraz'd Superstars - Feeling Horney
TTITLE11=Solid Base - You Never Know
TTITLE12=Roxxy - Love Set Us Free
TTITLE13=Capital Sound - Your Love Is My Energy
TTITLE14=Axel Force - The Saint
TTITLE15=Ricky Ricardo - Swingaling
TTITLE16=ZZZippooMan - Summer In The City
EXTD=YEAR: 1997
EXTT0=
EXTT1=
EXTT2=
EXTT3=
EXTT4=
EXTT5=
EXTT6=
EXTT7=
EXTT8=
EXTT9=
EXTT10=
EXTT11=
EXTT12=
EXTT13=
EXTT14=
EXTT15=
EXTT16=
PLAYORDER=
